<svg width="67" height="39" viewBox="0 0 67 39" fill="none" xmlns="http://www.w3.org/2000/svg">
<path d="M61.4784 0.000591406H6.26266C4.82124 -0.0194631 3.42987 0.471223 2.39446 1.36477C1.35904 2.25832 0.764336 3.48158 0.741089 4.76563L0.741089 33.3558C0.764336 34.6399 1.35904 35.8631 2.39446 36.7567C3.42987 37.6502 4.82124 38.1409 6.26266 38.1209H61.4784C62.9198 38.1409 64.3112 37.6502 65.3466 36.7567C66.382 35.8631 66.9767 34.6399 67 33.3558V4.76563C66.9767 3.48158 66.382 2.25832 65.3466 1.36477C64.3112 0.471223 62.9198 -0.0194631 61.4784 0.000591406Z" fill="white"/>
<path d="M23.3033 32.6315V30.8373C23.3138 30.6864 23.2918 30.535 23.2389 30.3932C23.1859 30.2514 23.1031 30.1225 22.9961 30.015C22.889 29.9075 22.7601 29.8239 22.618 29.7697C22.4759 29.7156 22.3238 29.6922 22.1719 29.701C21.973 29.6881 21.7743 29.7284 21.5964 29.8178C21.4186 29.9072 21.2681 30.0425 21.1608 30.2094C21.063 30.0475 20.9231 29.9148 20.7557 29.8253C20.5884 29.7358 20.3998 29.6929 20.21 29.701C20.0445 29.6927 19.8797 29.7275 19.7319 29.802C19.5841 29.8765 19.4585 29.988 19.3675 30.1256V29.7728H18.7416V32.6315H19.3735V31.0586C19.36 30.9608 19.3685 30.8613 19.3982 30.7672C19.428 30.6731 19.4783 30.5866 19.5456 30.5141C19.6128 30.4415 19.6954 30.3846 19.7874 30.3474C19.8794 30.3103 19.9784 30.2938 20.0776 30.2991C20.4928 30.2991 20.7035 30.5682 20.7035 31.0526V32.6435H21.3354V31.0586C21.3225 30.9609 21.3313 30.8617 21.3613 30.7678C21.3912 30.6739 21.4416 30.5877 21.5087 30.5152C21.5759 30.4428 21.6582 30.3859 21.7499 30.3485C21.8416 30.3112 21.9405 30.2943 22.0395 30.2991C22.4668 30.2991 22.6714 30.5682 22.6714 31.0526V32.6435L23.3033 32.6315ZM32.6523 29.7728H31.6232V28.9056H30.9913V29.7728H30.4196V30.3409H31.0034V31.6567C31.0034 32.3205 31.2622 32.7152 32.0024 32.7152C32.2789 32.7162 32.5501 32.6394 32.7847 32.4939L32.6042 31.9617C32.4363 32.0612 32.2458 32.1167 32.0505 32.1231C31.7496 32.1231 31.6353 31.9318 31.6353 31.6447V30.3409H32.6583L32.6523 29.7728ZM37.9904 29.701C37.8378 29.6966 37.6868 29.7331 37.5533 29.8068C37.4199 29.8804 37.3089 29.9885 37.2321 30.1197V29.7728H36.6122V32.6315H37.2381V31.0287C37.2381 30.5562 37.4427 30.2931 37.8399 30.2931C37.9738 30.2913 38.1067 30.3157 38.2311 30.3649L38.4237 29.7668C38.2807 29.716 38.1301 29.6897 37.9783 29.6891L37.9904 29.701ZM29.9201 30C29.5659 29.7907 29.1585 29.6869 28.7466 29.701C28.0184 29.701 27.543 30.0479 27.543 30.616C27.543 31.0825 27.892 31.3696 28.536 31.4593L28.8369 31.5012C29.1799 31.549 29.3424 31.6387 29.3424 31.8002C29.3424 32.0215 29.1137 32.1471 28.6864 32.1471C28.3427 32.157 28.0057 32.0516 27.7296 31.848L27.4287 32.3325C27.7932 32.5854 28.2299 32.7154 28.6744 32.7033C29.5049 32.7033 29.9863 32.3145 29.9863 31.7703C29.9863 31.2261 29.6072 31.0048 28.9813 30.9151L28.6804 30.8732C28.4096 30.8373 28.1929 30.7835 28.1929 30.5921C28.1929 30.4007 28.3976 30.2572 28.7406 30.2572C29.0576 30.2609 29.3685 30.3453 29.6433 30.5024L29.9201 30ZM46.6834 29.701C46.5308 29.6966 46.3799 29.7331 46.2464 29.8068C46.113 29.8804 46.002 29.9885 45.9252 30.1197V29.7728H45.3053V32.6315H45.9312V31.0287C45.9312 30.5562 46.1358 30.2931 46.533 30.2931C46.6669 30.2913 46.7998 30.3157 46.9242 30.3649L47.1167 29.7668C46.9738 29.716 46.8232 29.6897 46.6714 29.6891L46.6834 29.701ZM38.6192 31.1962C38.6118 31.3971 38.6466 31.5973 38.7215 31.784C38.7964 31.9708 38.9097 32.1399 39.0542 32.2807C39.1986 32.4214 39.371 32.5306 39.5604 32.6013C39.7497 32.672 39.9519 32.7027 40.1538 32.6913C40.5296 32.7103 40.899 32.5887 41.189 32.3504L40.888 31.848C40.6717 32.012 40.4079 32.1022 40.1358 32.1052C39.9044 32.0866 39.6886 31.9821 39.5313 31.8126C39.3739 31.643 39.2865 31.4208 39.2865 31.1902C39.2865 30.9595 39.3739 30.7373 39.5313 30.5678C39.6886 30.3982 39.9044 30.2938 40.1358 30.2752C40.4079 30.2782 40.6717 30.3684 40.888 30.5323L41.189 30.0299C40.899 29.7917 40.5296 29.6701 40.1538 29.6891C39.9519 29.6777 39.7497 29.7083 39.5604 29.779C39.371 29.8498 39.1986 29.959 39.0542 30.0997C38.9097 30.2404 38.7964 30.4096 38.7215 30.5963C38.6466 30.7831 38.6118 30.9833 38.6192 31.1842V31.1962ZM44.4808 31.1962V29.7728H43.855V30.1197C43.7487 29.9837 43.6114 29.8749 43.4544 29.8021C43.2975 29.7293 43.1253 29.6947 42.9522 29.701C42.5532 29.701 42.1705 29.8585 41.8884 30.1389C41.6062 30.4193 41.4477 30.7996 41.4477 31.1962C41.4477 31.5927 41.6062 31.973 41.8884 32.2534C42.1705 32.5338 42.5532 32.6913 42.9522 32.6913C43.1253 32.6976 43.2975 32.663 43.4544 32.5902C43.6114 32.5174 43.7487 32.4086 43.855 32.2727V32.6195H44.4808V31.1962ZM42.1518 31.1962C42.1618 31.0279 42.2211 30.8662 42.3224 30.731C42.4237 30.5958 42.5625 30.4929 42.7219 30.4352C42.8812 30.3774 43.0541 30.3672 43.2192 30.4058C43.3843 30.4444 43.5345 30.5302 43.6511 30.6525C43.7678 30.7749 43.8459 30.9285 43.8759 31.0944C43.9058 31.2603 43.8863 31.4313 43.8197 31.5863C43.7531 31.7414 43.6423 31.8737 43.501 31.9669C43.3597 32.0602 43.1941 32.1103 43.0245 32.1112C42.9053 32.1127 42.7872 32.0897 42.6774 32.0436C42.5676 31.9975 42.4687 31.9293 42.3867 31.8434C42.3048 31.7574 42.2416 31.6556 42.2012 31.5442C42.1607 31.4328 42.1439 31.3143 42.1518 31.1962V31.1962ZM34.5992 29.701C34.2001 29.7066 33.8197 29.8694 33.5415 30.1537C33.2633 30.4381 33.1101 30.8206 33.1157 31.2171C33.1213 31.6136 33.2852 31.9917 33.5713 32.2682C33.8574 32.5447 34.2423 32.6969 34.6413 32.6913C35.0742 32.7134 35.5 32.5748 35.8359 32.3026L35.535 31.8421C35.2974 32.0314 35.003 32.1367 34.6985 32.1411C34.4916 32.1588 34.2859 32.0956 34.1252 31.9649C33.9645 31.8342 33.8614 31.6464 33.8379 31.4414H35.9743C35.9743 31.3636 35.9743 31.2859 35.9743 31.2021C35.9743 30.3051 35.4146 29.707 34.6082 29.707L34.5992 29.701ZM34.5992 30.2572C34.6928 30.2552 34.786 30.2716 34.8732 30.3054C34.9605 30.3392 35.0403 30.3897 35.1079 30.4542C35.1755 30.5186 35.2297 30.5956 35.2674 30.6809C35.305 30.7661 35.3254 30.8579 35.3274 30.951H33.8228C33.8337 30.759 33.9198 30.5789 34.0627 30.4492C34.2055 30.3196 34.3938 30.2507 34.5871 30.2572H34.5992ZM50.2792 31.2021V28.6245H49.6774V30.1197C49.5711 29.9837 49.4339 29.8749 49.2769 29.8021C49.1199 29.7293 48.9478 29.6947 48.7747 29.701C48.3757 29.701 47.993 29.8585 47.7109 30.1389C47.4287 30.4193 47.2702 30.7996 47.2702 31.1962C47.2702 31.5927 47.4287 31.973 47.7109 32.2534C47.993 32.5338 48.3757 32.6913 48.7747 32.6913C48.9478 32.6976 49.1199 32.663 49.2769 32.5902C49.4339 32.5174 49.5711 32.4086 49.6774 32.2727V32.6195H50.2792V31.2021ZM51.3234 32.2158C51.3625 32.2154 51.4013 32.2225 51.4377 32.2368C51.4723 32.2508 51.5039 32.2711 51.531 32.2966C51.5574 32.3224 51.5789 32.3528 51.5942 32.3863C51.6094 32.4212 51.6173 32.4589 51.6173 32.4969C51.6173 32.535 51.6094 32.5727 51.5942 32.6076C51.5789 32.6411 51.5574 32.6715 51.531 32.6973C51.5039 32.7228 51.4723 32.7431 51.4377 32.7571C51.4017 32.7729 51.3627 32.781 51.3234 32.781C51.2663 32.7806 51.2106 32.7641 51.1626 32.7333C51.1147 32.7026 51.0765 32.659 51.0526 32.6076C51.0375 32.5726 51.0297 32.535 51.0297 32.4969C51.0297 32.4589 51.0375 32.4213 51.0526 32.3863C51.0679 32.3528 51.0893 32.3224 51.1157 32.2966C51.1428 32.2711 51.1745 32.2508 51.209 32.2368C51.2482 32.2213 51.2903 32.2142 51.3324 32.2158H51.3234ZM51.3234 32.7212C51.3534 32.7214 51.3831 32.7153 51.4106 32.7033C51.4365 32.6918 51.46 32.6755 51.4798 32.6554C51.5175 32.6146 51.5384 32.5613 51.5384 32.5059C51.5384 32.4505 51.5175 32.3972 51.4798 32.3564C51.46 32.3362 51.4366 32.32 51.4106 32.3085C51.3831 32.2966 51.3534 32.2905 51.3234 32.2906C51.2934 32.2908 51.2637 32.2969 51.2361 32.3085C51.2091 32.3196 51.1845 32.3358 51.1639 32.3564C51.1263 32.3972 51.1054 32.4505 51.1054 32.5059C51.1054 32.5613 51.1263 32.6146 51.1639 32.6554C51.1846 32.6759 51.2091 32.6922 51.2361 32.7033C51.2665 32.7163 51.2994 32.7224 51.3324 32.7212H51.3234ZM51.3414 32.3654C51.3695 32.364 51.3972 32.3725 51.4197 32.3893C51.4289 32.3969 51.4361 32.4065 51.4408 32.4174C51.4455 32.4284 51.4476 32.4402 51.4467 32.4521C51.4472 32.462 51.4455 32.4719 51.4419 32.4812C51.4383 32.4905 51.4327 32.4989 51.4257 32.5059C51.4082 32.5216 51.386 32.5311 51.3625 32.5328L51.4497 32.6315H51.3805L51.2993 32.5328H51.2722V32.6315H51.215V32.3684L51.3414 32.3654ZM51.2752 32.4162V32.488H51.3414C51.3532 32.4915 51.3657 32.4915 51.3775 32.488C51.3796 32.4838 51.3807 32.4792 51.3807 32.4745C51.3807 32.4698 51.3796 32.4652 51.3775 32.4611C51.3796 32.4569 51.3807 32.4523 51.3807 32.4476C51.3807 32.4429 51.3796 32.4383 51.3775 32.4341C51.3657 32.4306 51.3532 32.4306 51.3414 32.4341L51.2752 32.4162ZM47.9653 31.2021C47.9753 31.0339 48.0346 30.8722 48.1358 30.737C48.2371 30.6017 48.376 30.4989 48.5353 30.4411C48.6947 30.3834 48.8676 30.3732 49.0327 30.4118C49.1978 30.4504 49.3479 30.5362 49.4646 30.6585C49.5813 30.7809 49.6594 30.9345 49.6893 31.1004C49.7193 31.2663 49.6998 31.4373 49.6332 31.5923C49.5666 31.7473 49.4558 31.8796 49.3145 31.9729C49.1732 32.0661 49.0075 32.1163 48.8379 32.1172C48.7188 32.1187 48.6006 32.0956 48.4908 32.0496C48.3811 32.0035 48.2821 31.9353 48.2002 31.8494C48.1182 31.7634 48.055 31.6616 48.0146 31.5502C47.9742 31.4388 47.9574 31.3203 47.9653 31.2021V31.2021ZM26.8329 31.2021V29.7728H26.207V30.1197C26.1007 29.9837 25.9634 29.8749 25.8064 29.8021C25.6495 29.7293 25.4774 29.6947 25.3043 29.701C24.9053 29.701 24.5226 29.8585 24.2404 30.1389C23.9583 30.4193 23.7998 30.7996 23.7998 31.1962C23.7998 31.5927 23.9583 31.973 24.2404 32.2534C24.5226 32.5338 24.9053 32.6913 25.3043 32.6913C25.4774 32.6976 25.6495 32.663 25.8064 32.5902C25.9634 32.5174 26.1007 32.4086 26.207 32.2727V32.6195H26.8329V31.2021ZM24.5039 31.2021C24.5139 31.0339 24.5731 30.8722 24.6744 30.737C24.7757 30.6017 24.9146 30.4989 25.0739 30.4411C25.2333 30.3834 25.4061 30.3732 25.5712 30.4118C25.7363 30.4504 25.8865 30.5362 26.0032 30.6585C26.1198 30.7809 26.198 30.9345 26.2279 31.1004C26.2579 31.2663 26.2383 31.4373 26.1717 31.5923C26.1051 31.7473 25.9944 31.8796 25.8531 31.9729C25.7118 32.0661 25.5461 32.1163 25.3765 32.1172C25.2568 32.1195 25.138 32.0971 25.0276 32.0514C24.9171 32.0057 24.8174 31.9376 24.7348 31.8516C24.6522 31.7656 24.5884 31.6634 24.5476 31.5516C24.5069 31.4398 24.4899 31.3208 24.4979 31.2021H24.5039Z" fill="#4D4D4D"/>
<path d="M29.7625 8.0373H39.141V24.8653H29.7625V8.0373Z" fill="#4D4D4D" stroke="white" stroke-width="0.1"/>
<path d="M30.2144 16.4545C30.2126 14.8088 30.5877 13.1842 31.3112 11.7039C32.0159 10.262 33.0332 8.99374 34.2893 7.98993C32.7264 6.79897 30.8631 6.05777 28.9031 5.84884C26.9007 5.63538 24.8783 5.98607 23.067 6.8608C21.2558 7.73553 19.7288 9.09897 18.6605 10.7952C17.5923 12.4914 17.0258 14.4521 17.0258 16.453C17.0258 18.454 17.5923 20.4146 18.6605 22.1109C19.7288 23.8071 21.2558 25.1705 23.067 26.0453C24.8783 26.92 26.9007 27.2707 28.9031 27.0572C30.8631 26.8483 32.7264 26.1071 34.2893 24.9161C33.0336 23.9126 32.0166 22.6449 31.3119 21.2036C30.5884 19.7238 30.2131 18.0998 30.2144 16.4545ZM30.2144 16.4545C30.2144 16.4545 30.2144 16.4545 30.2144 16.4545L30.3144 16.4545L30.2144 16.4546C30.2144 16.4546 30.2144 16.4546 30.2144 16.4545ZM34.4518 24.917C34.4247 24.8959 34.3978 24.8747 34.3709 24.8533L34.3702 24.9802C34.3975 24.9593 34.4247 24.9382 34.4518 24.917Z" fill="#4D4D4D" stroke="white" stroke-width="0.2"/>
<path d="M51.8793 16.4528C51.8793 18.4539 51.3127 20.4147 50.2442 22.111C49.1758 23.8073 47.6486 25.1707 45.8371 26.0453C44.0256 26.9199 42.003 27.2704 40.0005 27.0566C38.0403 26.8474 36.177 26.1058 34.6142 24.9144C35.8694 23.9101 36.8861 22.642 37.591 21.2005C38.3147 19.7207 38.6907 18.0968 38.6907 16.4513C38.6907 14.8059 38.3147 13.182 37.591 11.7022C36.8861 10.2607 35.8694 8.99262 34.6142 7.98828C36.177 6.7969 38.0403 6.05532 40.0005 5.84607C42.003 5.63231 44.0256 5.98278 45.8371 6.85738C47.6486 7.73198 49.1758 9.0954 50.2442 10.7917C51.3127 12.488 51.8793 14.4488 51.8793 16.4499V16.4528Z" fill="#4D4D4D" stroke="white" stroke-width="0.2"/>
<path d="M50.9443 23.1213V22.7744H51.0857V22.7026H50.7277V22.7744H50.8811V23.1213H50.9443ZM51.6394 23.1213V22.7026H51.5311L51.4047 23.0017L51.2783 22.7026H51.182V23.1213H51.2603V22.8073L51.3776 23.0794H51.4589L51.5762 22.8073V23.1243L51.6394 23.1213Z" fill="#4D4D4D"/>
</svg>
