<svg width="67" height="39" viewBox="0 0 67 39" fill="none" xmlns="http://www.w3.org/2000/svg">
<path d="M61.1079 0.879009H5.89218C4.45075 0.858955 3.05939 1.34964 2.02397 2.24319C0.988557 3.13674 0.393852 4.36 0.370605 5.64404L0.370605 34.2343C0.393852 35.5183 0.988557 36.7416 2.02397 37.6351C3.05939 38.5287 4.45075 39.0193 5.89218 38.9993H61.1079C62.5493 39.0193 63.9407 38.5287 64.9761 37.6351C66.0115 36.7416 66.6062 35.5183 66.6295 34.2343V5.64404C66.6062 4.36 66.0115 3.13674 64.9761 2.24319C63.9407 1.34964 62.5493 0.858955 61.1079 0.879009Z" fill="white"/>
<g clip-path="url(#clip0_0_1)">
<path d="M16.2913 27.4334C20.4286 27.4533 24.2052 24.1095 24.2052 20.0417C24.2052 15.5937 20.4286 12.5192 16.2913 12.5205H12.7308C8.54394 12.5192 5.09769 15.5945 5.09769 20.0417C5.09769 24.1105 8.54394 27.4533 12.7308 27.4334H16.2913Z" fill="#4D4D4D"/>
<path d="M14.3185 24.0017V15.9245C15.9665 16.5473 17.1364 18.1192 17.1392 19.9628C17.1364 21.8068 15.9665 23.3778 14.3185 24.0017ZM8.35633 19.9628C8.36003 18.1203 9.52807 16.5493 11.1751 15.9247V24C9.52807 23.3759 8.36003 21.8059 8.35633 19.9628ZM12.7471 13.136C8.92131 13.1373 5.82115 16.1925 5.82022 19.9628C5.82115 23.7328 8.92131 26.7874 12.7471 26.7885C16.5742 26.7874 19.6749 23.7328 19.6755 19.9628C19.6749 16.1925 16.5742 13.1373 12.7471 13.136Z" fill="white"/>
<path d="M26.6312 15.728C26.6312 15.0227 26.2576 15.069 25.8997 15.0615V14.8577C26.2099 14.8726 26.528 14.8726 26.839 14.8726C27.1731 14.8726 27.6269 14.8577 28.2163 14.8577C30.2775 14.8577 31.3997 16.214 31.3997 17.603C31.3997 18.3795 30.9384 20.3323 28.1204 20.3323C27.7148 20.3323 27.34 20.3168 26.9662 20.3168C26.6083 20.3168 26.2576 20.3243 25.8997 20.3323V20.1283C26.3768 20.0811 26.6083 20.0654 26.6312 19.5321V15.728ZM27.4114 19.4068C27.4114 20.0106 27.8497 20.0811 28.2394 20.0811C29.9591 20.0811 30.5239 18.8027 30.5239 17.634C30.5239 16.1678 29.5687 15.109 28.0326 15.109C27.7057 15.109 27.5554 15.132 27.4114 15.1404V19.4068ZM31.6788 20.1285H31.8299C32.0525 20.1285 32.2118 20.1285 32.2118 19.8691V17.744C32.2118 17.3992 32.0926 17.3513 31.7977 17.1953V17.0696C32.1719 16.9592 32.618 16.811 32.6494 16.7875C32.7054 16.7561 32.753 16.7478 32.7929 16.7478C32.8323 16.7478 32.8487 16.7949 32.8487 16.8581V19.8691C32.8487 20.1285 33.0238 20.1285 33.2469 20.1285H33.3819V20.3325C33.1111 20.3325 32.8323 20.3168 32.5465 20.3168C32.2597 20.3168 31.973 20.3245 31.6788 20.3325V20.1285ZM32.5306 15.5402C32.3231 15.5402 32.1405 15.352 32.1405 15.148C32.1405 14.9517 32.3318 14.7708 32.5306 14.7708C32.7369 14.7708 32.9205 14.9362 32.9205 15.148C32.9205 15.3601 32.745 15.5402 32.5306 15.5402ZM34.1382 17.7908C34.1382 17.5008 34.0502 17.4227 33.677 17.2737V17.1246C34.0188 17.015 34.3449 16.9126 34.7274 16.7478C34.7511 16.7478 34.7744 16.7638 34.7744 16.8261V17.3361C35.2288 17.015 35.6191 16.7478 36.153 16.7478C36.8291 16.7478 37.0678 17.2341 37.0678 17.846V19.8691C37.0678 20.1285 37.2426 20.1285 37.4658 20.1285H37.6091V20.3325C37.3299 20.3325 37.0513 20.3168 36.7655 20.3168C36.4786 20.3168 36.1918 20.3245 35.9054 20.3325V20.1285H36.0485C36.2719 20.1285 36.4303 20.1285 36.4303 19.8691V17.8384C36.4303 17.3908 36.153 17.1716 35.6986 17.1716C35.444 17.1716 35.038 17.3753 34.7744 17.548V19.8691C34.7744 20.1285 34.9506 20.1285 35.1735 20.1285H35.3166V20.3325C35.038 20.3325 34.759 20.3168 34.4725 20.3168C34.1863 20.3168 33.8992 20.3245 33.613 20.3325V20.1285H33.7566C33.9794 20.1285 34.1382 20.1285 34.1382 19.8691V17.7908ZM38.2143 18.1679C38.1979 18.2386 38.1979 18.3559 38.2143 18.6227C38.2611 19.3676 38.7481 19.9791 39.3839 19.9791C39.8224 19.9791 40.1651 19.7437 40.4589 19.4539L40.5702 19.5638C40.204 20.0423 39.7501 20.45 39.0981 20.45C37.8318 20.45 37.5775 19.2419 37.5775 18.7402C37.5775 17.2028 38.6277 16.7478 39.1846 16.7478C39.83 16.7478 40.5231 17.1476 40.5301 17.979C40.5301 18.0267 40.5301 18.0732 40.5231 18.1207L40.4508 18.1679H38.2143ZM39.6235 17.9167C39.8224 17.9167 39.8455 17.8145 39.8455 17.7205C39.8455 17.3207 39.5991 16.9991 39.153 16.9991C38.6677 16.9991 38.3334 17.3513 38.238 17.9167H39.6235ZM40.7137 20.1285H40.9287C41.1507 20.1285 41.3101 20.1285 41.3101 19.8691V17.6657C41.3101 17.4227 41.0159 17.3753 40.8963 17.3126V17.1953C41.4774 16.952 41.7959 16.7478 41.8686 16.7478C41.9154 16.7478 41.939 16.7713 41.939 16.8501V17.5558H41.956C42.1542 17.25 42.4892 16.7478 42.9745 16.7478C43.1736 16.7478 43.428 16.8809 43.428 17.1634C43.428 17.3753 43.2771 17.564 43.0544 17.564C42.8066 17.564 42.8066 17.3753 42.5284 17.3753C42.3929 17.3753 41.9473 17.5558 41.9473 18.0267V19.8691C41.9473 20.1285 42.1061 20.1285 42.3293 20.1285H42.7748V20.3325C42.3369 20.3245 42.0037 20.3168 41.661 20.3168C41.3347 20.3168 41.0002 20.3245 40.7137 20.3325V20.1285ZM43.7782 19.2419C43.8819 19.7594 44.2 20.199 44.7815 20.199C45.2503 20.199 45.4254 19.9166 45.4254 19.6423C45.4254 18.7165 43.6907 19.0144 43.6907 17.752C43.6907 17.3125 44.0494 16.7478 44.9246 16.7478C45.179 16.7478 45.5212 16.8186 45.8314 16.9756L45.8876 17.775H45.7044C45.6249 17.2813 45.3464 16.999 44.8367 16.999C44.518 16.999 44.2159 17.1793 44.2159 17.5165C44.2159 18.4347 46.0627 18.1519 46.0627 19.3831C46.0627 19.9006 45.6408 20.4502 44.6933 20.4502C44.3749 20.4502 44.0007 20.3401 43.7225 20.1835L43.6347 19.2814L43.7782 19.2419ZM53.2504 16.2771H53.0518C52.9002 15.3601 52.2395 14.991 51.3484 14.991C50.4325 14.991 49.1029 15.5947 49.1029 17.4769C49.1029 19.0621 50.2501 20.199 51.4754 20.199C52.2632 20.199 52.9165 19.6658 53.0759 18.8419L53.2585 18.8889L53.0759 20.0339C52.7414 20.2385 51.8418 20.45 51.3161 20.45C49.454 20.45 48.2762 19.2656 48.2762 17.5008C48.2762 15.8929 49.7324 14.7396 51.2926 14.7396C51.937 14.7396 52.5582 14.9442 53.1709 15.156L53.2504 16.2771ZM53.5375 20.1285H53.688C53.9115 20.1285 54.0709 20.1285 54.0709 19.8691V15.5012C54.0709 14.991 53.9514 14.9753 53.649 14.8892V14.7637C53.9672 14.6618 54.3016 14.5207 54.4687 14.4261C54.5556 14.3795 54.6198 14.3396 54.6432 14.3396C54.6917 14.3396 54.7078 14.3871 54.7078 14.45V19.8691C54.7078 20.1285 54.8827 20.1285 55.1058 20.1285H55.2402V20.3325C54.9705 20.3325 54.6917 20.3168 54.4051 20.3168C54.1188 20.3168 53.8322 20.3245 53.5375 20.3325V20.1285ZM58.6484 19.9006C58.6484 20.0423 58.7356 20.0498 58.8708 20.0498C58.9665 20.0498 59.0854 20.0423 59.1893 20.0423V20.2073C58.8466 20.2385 58.1941 20.4032 58.0427 20.4502L58.0026 20.4265V19.7915C57.5258 20.1757 57.159 20.4502 56.5933 20.4502C56.1638 20.4502 55.7181 20.1757 55.7181 19.5171V17.5088C55.7181 17.3048 55.6865 17.1086 55.2411 17.0696V16.9204C55.5281 16.9128 56.1638 16.8658 56.2677 16.8658C56.3559 16.8658 56.3559 16.9204 56.3559 17.0931V19.1162C56.3559 19.3519 56.3559 20.0263 57.0479 20.0263C57.3186 20.0263 57.6767 19.8224 58.0106 19.5485V17.4378C58.0106 17.2813 57.6288 17.1953 57.3428 17.1168V16.9756C58.0584 16.9283 58.5049 16.8658 58.584 16.8658C58.6484 16.8658 58.6484 16.9204 58.6484 17.0072V19.9006ZM60.2322 17.3126C60.5502 17.046 60.9802 16.7478 61.4184 16.7478C62.3418 16.7478 62.8983 17.5405 62.8983 18.395C62.8983 19.4224 62.1346 20.4502 60.9955 20.4502C60.4071 20.4502 60.0967 20.2616 59.8894 20.1757L59.651 20.3556L59.4844 20.2696C59.5548 19.807 59.5955 19.3519 59.5955 18.8736V15.5012C59.5955 14.991 59.4755 14.9753 59.1732 14.8892V14.7637C59.4923 14.6618 59.8258 14.5207 59.9933 14.4261C60.0808 14.3795 60.144 14.3396 60.1688 14.3396C60.2165 14.3396 60.2322 14.3871 60.2322 14.45V17.3126ZM60.2322 19.4457C60.2322 19.7437 60.5186 20.2463 61.0519 20.2463C61.9038 20.2463 62.2618 19.4224 62.2618 18.724C62.2618 17.8772 61.6097 17.1716 60.9885 17.1716C60.6933 17.1716 60.447 17.36 60.2322 17.5405V19.4457ZM25.8906 24.8925H25.9516C26.1073 24.8925 26.2718 24.8717 26.2718 24.6495V22.4139C26.2718 22.1913 26.1073 22.1701 25.9516 22.1701H25.8906V22.0421C26.0596 22.0421 26.3195 22.0588 26.5323 22.0588C26.7486 22.0588 27.0082 22.0421 27.2117 22.0421V22.1701H27.1509C26.9956 22.1701 26.8307 22.1913 26.8307 22.4139V24.6495C26.8307 24.8717 26.9956 24.8925 27.1509 24.8925H27.2117V25.0211C27.0039 25.0211 26.7434 25.0044 26.5277 25.0044C26.3153 25.0044 26.0596 25.0211 25.8906 25.0211V24.8925ZM30.1875 24.1799L30.1961 24.1715V22.5714C30.1961 22.2213 29.949 22.1701 29.8192 22.1701H29.7238V22.0421C29.9275 22.0421 30.1268 22.059 30.3302 22.059C30.5077 22.059 30.6859 22.0421 30.863 22.0421V22.1701H30.7985C30.616 22.1701 30.4124 22.2044 30.4124 22.7121V24.6542C30.4124 24.8034 30.4169 24.9526 30.4381 25.0849H30.2736L28.0433 22.635V24.3936C28.0433 24.7648 28.1163 24.8925 28.4502 24.8925H28.5236V25.0211C28.3376 25.0211 28.1516 25.0044 27.9651 25.0044C27.7708 25.0044 27.5713 25.0211 27.3762 25.0211V24.8925H27.4369C27.7356 24.8925 27.8264 24.6923 27.8264 24.3513V22.5538C27.8264 22.3151 27.6268 22.1701 27.4326 22.1701H27.3762V22.0421C27.5406 22.0421 27.7096 22.059 27.8737 22.059C28.0039 22.059 28.1298 22.0421 28.2596 22.0421L30.1875 24.1799ZM31.5117 22.2554C31.1863 22.2554 31.1741 22.3322 31.1091 22.6434H30.9793C30.9961 22.5241 31.0181 22.4047 31.0312 22.2807C31.0488 22.161 31.0571 22.0421 31.0571 21.9184H31.161C31.1959 22.0466 31.3041 22.0421 31.4217 22.0421H33.6559C33.7731 22.0421 33.8811 22.0379 33.8901 21.9096L33.9935 21.9268C33.9766 22.0421 33.9591 22.157 33.946 22.2725C33.938 22.3878 33.938 22.5031 33.938 22.6181L33.8079 22.6654C33.799 22.5077 33.7772 22.2554 33.4873 22.2554H32.777V24.5258C32.777 24.855 32.9288 24.8925 33.1362 24.8925H33.2185V25.0211C33.0497 25.0211 32.7463 25.0044 32.5128 25.0044C32.2529 25.0044 31.9495 25.0211 31.7803 25.0211V24.8925H31.8626C32.1016 24.8925 32.2222 24.8716 32.2222 24.5347V22.2554H31.5117ZM34.1319 24.8925H34.1928C34.3486 24.8925 34.5133 24.8717 34.5133 24.6495V22.4139C34.5133 22.1913 34.3486 22.1701 34.1928 22.1701H34.1319V22.0421C34.3956 22.0421 34.847 22.0588 35.2101 22.0588C35.5745 22.0588 36.0243 22.0421 36.3186 22.0421C36.3112 22.2253 36.3155 22.5075 36.3281 22.6951L36.1976 22.7294C36.1767 22.4521 36.1249 22.2302 35.6697 22.2302H35.0683V23.348H35.583C35.8428 23.348 35.8995 23.2033 35.9252 22.9724H36.0548C36.0463 23.1392 36.0419 23.3055 36.0419 23.4717C36.0419 23.6343 36.0463 23.7963 36.0548 23.9584L35.9252 23.9837C35.8995 23.728 35.8864 23.5615 35.5871 23.5615H35.0683V24.5557C35.0683 24.8331 35.3185 24.8331 35.5958 24.8331C36.1158 24.8331 36.3451 24.7987 36.4752 24.3129L36.5963 24.3422C36.5398 24.569 36.488 24.7945 36.4495 25.0211C36.1719 25.0211 35.6738 25.0044 35.2845 25.0044C34.8942 25.0044 34.3788 25.0211 34.1319 25.0211V24.8925ZM37.1809 22.4942C37.1809 22.1829 37.0077 22.1701 36.8731 22.1701H36.7951V22.0419C36.9337 22.0419 37.2022 22.059 37.4665 22.059C37.7261 22.059 37.9343 22.0419 38.1637 22.0419C38.7091 22.0419 39.1947 22.1869 39.1947 22.7935C39.1947 23.1769 38.935 23.4117 38.5928 23.5447L39.3332 24.6364C39.4547 24.8169 39.5408 24.8676 39.7534 24.8923V25.0211C39.6103 25.0211 39.4717 25.0044 39.329 25.0044C39.1947 25.0044 39.0557 25.0211 38.922 25.0211C38.5885 24.5901 38.302 24.1293 38.0208 23.6378H37.7355V24.5515C37.7355 24.8805 37.891 24.8923 38.0899 24.8923H38.1681V25.0211C37.9208 25.0211 37.6704 25.0044 37.4233 25.0044C37.2151 25.0044 37.0116 25.0211 36.7951 25.0211V24.8923H36.8731C37.0339 24.8923 37.1809 24.8207 37.1809 24.6626V22.4942ZM37.7355 23.484H37.947C38.3806 23.484 38.6139 23.3223 38.6139 22.8184C38.6139 22.4392 38.3672 22.1958 37.9814 22.1958C37.8513 22.1958 37.7958 22.2089 37.7355 22.2127V23.484ZM42.694 24.1799L42.7018 24.1715V22.5714C42.7018 22.2213 42.4554 22.1701 42.3256 22.1701H42.2306V22.0421C42.4341 22.0421 42.6327 22.059 42.8368 22.059C43.0146 22.059 43.1914 22.0421 43.3703 22.0421V22.1701H43.3049C43.1231 22.1701 42.9194 22.2044 42.9194 22.7121V24.6542C42.9194 24.8034 42.9235 24.9526 42.9449 25.0849H42.7808L40.5502 22.635V24.3936C40.5502 24.7648 40.6236 24.8925 40.9572 24.8925H41.0307V25.0211C40.8447 25.0211 40.6584 25.0044 40.4724 25.0044C40.2768 25.0044 40.0777 25.0211 39.883 25.0211V24.8925H39.9431C40.2424 24.8925 40.3334 24.6923 40.3334 24.3513V22.5538C40.3334 22.3151 40.1341 22.1701 39.9394 22.1701H39.883V22.0421C40.047 22.0421 40.2167 22.059 40.3813 22.059C40.5101 22.059 40.6362 22.0421 40.7665 22.0421L42.694 24.1799ZM44.0667 24.4109C44.0227 24.5557 43.9706 24.6674 43.9706 24.7435C43.9706 24.8717 44.1527 24.8925 44.2952 24.8925H44.3437V25.0211C44.1701 25.0118 43.9932 25.0045 43.8186 25.0045C43.663 25.0045 43.5081 25.0118 43.3515 25.0211V24.8925H43.3777C43.5465 24.8925 43.6898 24.7945 43.7538 24.6149L44.4476 22.6569C44.5032 22.4989 44.582 22.2854 44.6081 22.127C44.746 22.0807 44.9196 21.9954 45.0018 21.9441C45.0152 21.9395 45.0227 21.9351 45.0364 21.9351C45.0494 21.9351 45.0573 21.9351 45.0671 21.9483C45.08 21.9823 45.0922 22.0208 45.1063 22.0548L45.9031 24.287C45.9549 24.4362 46.0065 24.5939 46.0625 24.7226C46.115 24.8421 46.2059 24.8925 46.349 24.8925H46.3749V25.0211C46.18 25.0118 45.9848 25.0045 45.7774 25.0045C45.5653 25.0045 45.3481 25.0118 45.1272 25.0211V24.8925H45.1753C45.2743 24.8925 45.4439 24.8759 45.4439 24.769C45.4439 24.7138 45.4049 24.5987 45.3564 24.4617L45.188 23.9668H44.2048L44.0667 24.4109ZM44.6988 22.5201H44.69L44.2871 23.728H45.0965L44.6988 22.5201ZM46.5655 22.2554C46.2405 22.2554 46.2276 22.3322 46.1625 22.6434H46.0323C46.0493 22.5241 46.0713 22.4047 46.0848 22.2807C46.102 22.161 46.1102 22.0421 46.1102 21.9184H46.2146C46.249 22.0466 46.3577 22.0421 46.4742 22.0421H48.7095C48.826 22.0421 48.9341 22.0379 48.943 21.9096L49.0467 21.9268C49.0301 22.0421 49.0127 22.157 48.9998 22.2725C48.9901 22.3878 48.9901 22.5031 48.9901 22.6181L48.8605 22.6654C48.8526 22.5077 48.8308 22.2554 48.5405 22.2554H47.8301V24.5258C47.8301 24.855 47.982 24.8925 48.1895 24.8925H48.2719V25.0211C48.1029 25.0211 47.7999 25.0044 47.5659 25.0044C47.3065 25.0044 47.0026 25.0211 46.8338 25.0211V24.8925H46.916C47.1547 24.8925 47.2758 24.8716 47.2758 24.5347V22.2554H46.5655ZM49.2065 24.8925H49.2671C49.4235 24.8925 49.5873 24.8717 49.5873 24.6495V22.4139C49.5873 22.1913 49.4235 22.1701 49.2671 22.1701H49.2065V22.0421C49.3758 22.0421 49.6352 22.0588 49.847 22.0588C50.0643 22.0588 50.324 22.0421 50.5279 22.0421V22.1701H50.4673C50.3111 22.1701 50.1462 22.1913 50.1462 22.4139V24.6495C50.1462 24.8717 50.3111 24.8925 50.4673 24.8925H50.5279V25.0211C50.3198 25.0211 50.0598 25.0044 49.8435 25.0044C49.6309 25.0044 49.3758 25.0211 49.2065 25.0211V24.8925ZM52.2552 21.9783C53.1787 21.9783 53.9145 22.5419 53.9145 23.4509C53.9145 24.4326 53.1997 25.0851 52.2776 25.0851C51.3586 25.0851 50.6573 24.4706 50.6573 23.5531C50.6573 22.6656 51.3545 21.9783 52.2552 21.9783ZM52.3207 24.8972C53.1611 24.8972 53.3073 24.167 53.3073 23.5449C53.3073 22.9208 52.9662 22.1658 52.2469 22.1658C51.4887 22.1658 51.2637 22.8317 51.2637 23.403C51.2637 24.167 51.6189 24.8972 52.3207 24.8972ZM56.8331 24.1799L56.842 24.1715V22.5714C56.842 22.2213 56.5944 22.1701 56.4644 22.1701H56.3705V22.0421C56.5733 22.0421 56.7728 22.059 56.9756 22.059C57.154 22.059 57.3315 22.0421 57.5094 22.0421V22.1701H57.4439C57.2624 22.1701 57.0585 22.2044 57.0585 22.7121V24.6542C57.0585 24.8034 57.0625 24.9526 57.0845 25.0849H56.9202L54.6891 22.635V24.3936C54.6891 24.7648 54.7629 24.8925 55.096 24.8925H55.17V25.0211C54.9836 25.0211 54.7978 25.0044 54.6115 25.0044C54.4166 25.0044 54.2167 25.0211 54.0217 25.0211V24.8925H54.0829C54.3822 24.8925 54.4722 24.6923 54.4722 24.3513V22.5538C54.4722 22.3151 54.2741 22.1701 54.0783 22.1701H54.0217V22.0421C54.1866 22.0421 54.3556 22.059 54.5199 22.059C54.6497 22.059 54.7751 22.0421 54.9054 22.0421L56.8331 24.1799ZM58.2052 24.4109C58.1627 24.5557 58.1102 24.6674 58.1102 24.7435C58.1102 24.8717 58.2927 24.8925 58.4347 24.8925H58.4831V25.0211C58.3097 25.0118 58.1318 25.0045 57.9586 25.0045C57.8022 25.0045 57.6469 25.0118 57.4916 25.0211V24.8925H57.5162C57.6857 24.8925 57.8292 24.7945 57.8932 24.6149L58.5872 22.6569C58.6432 22.4989 58.7216 22.2854 58.7467 22.127C58.8856 22.0807 59.0586 21.9954 59.1416 21.9441C59.154 21.9395 59.1627 21.9351 59.1758 21.9351C59.1888 21.9351 59.1971 21.9351 59.2058 21.9483C59.2189 21.9823 59.2322 22.0208 59.2453 22.0548L60.0418 24.287C60.0937 24.4362 60.1455 24.5939 60.2024 24.7226C60.2544 24.8421 60.3457 24.8925 60.4883 24.8925H60.5147V25.0211C60.3195 25.0118 60.1244 25.0045 59.9162 25.0045C59.7046 25.0045 59.4875 25.0118 59.2666 25.0211V24.8925H59.3145C59.4134 24.8925 59.5835 24.8759 59.5835 24.769C59.5835 24.7138 59.5441 24.5987 59.4958 24.4617L59.3276 23.9668H58.3443L58.2052 24.4109ZM58.8382 22.5201H58.8296L58.4262 23.728H59.2368L58.8382 22.5201ZM61.606 24.6027C61.606 24.7737 61.7264 24.8246 61.865 24.8421C62.0427 24.855 62.2375 24.855 62.4374 24.8333C62.6189 24.8118 62.7748 24.7096 62.8526 24.6027C62.9218 24.5087 62.9606 24.3894 62.987 24.2954H63.1125C63.065 24.5386 63.0042 24.7781 62.9519 25.0211C62.5718 25.0211 62.1893 25.0045 61.8092 25.0045C61.4274 25.0045 61.0468 25.0211 60.6655 25.0211V24.8925H60.7253C60.8819 24.8925 61.0512 24.8717 61.0512 24.6069V22.4137C61.0512 22.1913 60.8819 22.1701 60.7253 22.1701H60.6655V22.0421C60.8946 22.0421 61.1202 22.059 61.3494 22.059C61.5711 22.059 61.7872 22.0421 62.0083 22.0421V22.1701H61.8994C61.7352 22.1701 61.606 22.1749 61.606 22.4006V24.6027Z" fill="#4D4D4D"/>
</g>
<defs>
<clipPath id="clip0_0_1">
<rect width="58.1218" height="15.0175" fill="white" transform="translate(5.02026 12.4307)"/>
</clipPath>
</defs>
</svg>
