<svg width="67" height="39" viewBox="0 0 67 39" fill="none" xmlns="http://www.w3.org/2000/svg">
<path d="M60.7373 0.000591406H5.52157C4.08015 -0.0194631 2.68878 0.471223 1.65337 1.36477C0.617952 2.25832 0.023247 3.48158 0 4.76563L0 33.3558C0.023247 34.6399 0.617952 35.8631 1.65337 36.7567C2.68878 37.6502 4.08015 38.1409 5.52157 38.1209H60.7373C62.1787 38.1409 63.5701 37.6502 64.6055 36.7567C65.6409 35.8631 66.2356 34.6399 66.2589 33.3558V4.76563C66.2356 3.48158 65.6409 2.25832 64.6055 1.36477C63.5701 0.471223 62.1787 -0.0194631 60.7373 0.000591406Z" fill="white"/>
<path d="M14.6688 13.3941C15.416 13.1462 16.2075 13.0588 16.9912 13.1375C17.7748 13.2162 18.5327 13.4593 19.2148 13.8507C19.8969 14.2421 20.4877 14.7729 20.9481 15.408C21.4084 16.0432 21.7279 16.7681 21.8854 17.535L25.7011 16.7619C25.4326 15.4588 24.8891 14.227 24.1064 13.148C23.3237 12.0689 22.3196 11.167 21.1605 10.5019C20.0013 9.83675 18.7134 9.42343 17.3817 9.28922C16.0501 9.15501 14.7049 9.30295 13.4349 9.72329L14.6688 13.3941Z" fill="#4D4D4D"/>
<path d="M10.1666 25.6783L12.7458 22.7807C12.1561 22.2616 11.684 21.6241 11.3607 20.9102C11.0374 20.1964 10.8702 19.4225 10.8702 18.6397C10.8702 17.8568 11.0374 17.0829 11.3607 16.3691C11.684 15.6553 12.1561 15.0178 12.7458 14.4987L10.1653 11.6011C9.16228 12.4829 8.35916 13.5664 7.80911 14.7798C7.25905 15.9932 6.97461 17.3088 6.97461 18.6397C6.97461 19.9705 7.25905 21.2862 7.80911 22.4996C8.35916 23.713 9.16228 24.7965 10.1653 25.6783H10.1666Z" fill="#4D4D4D"/>
<path d="M21.8842 19.749C21.7259 20.5155 21.4058 21.2399 20.945 21.8744C20.4842 22.5088 19.8932 23.039 19.211 23.4297C18.5289 23.8204 17.7711 24.0629 16.9877 24.1411C16.2042 24.2194 15.413 24.1315 14.6663 23.8834L13.431 27.5528C14.7003 27.9735 16.0449 28.122 17.3761 27.9885C18.7074 27.8551 19.995 27.4427 21.1542 26.7786C22.3133 26.1145 23.3177 25.2138 24.101 24.1358C24.8843 23.0579 25.4288 21.8271 25.6985 20.5248L21.8842 19.749Z" fill="#4D4D4D"/>
<path d="M38.4021 22.3408C37.8583 22.8744 37.1484 23.2087 36.3886 23.2891C35.6287 23.3695 34.8639 23.1912 34.2192 22.7834L32.9562 24.7827C34.0525 25.4698 35.3499 25.7694 36.6387 25.6331C37.9275 25.4969 39.1324 24.9328 40.0588 24.032L38.4021 22.3408Z" fill="#4D4D4D"/>
<path d="M36.1119 14.1959C35.0653 14.1805 34.0342 14.4482 33.1289 14.9704C32.2237 15.4925 31.4783 16.2495 30.9727 17.1602C30.467 18.0709 30.22 19.1012 30.2582 20.1406C30.2964 21.1801 30.6183 22.1897 31.1895 23.0614L41.6426 18.6214C41.3486 17.3769 40.6448 16.2655 39.6428 15.4638C38.6408 14.662 37.3981 14.2158 36.1119 14.1959ZM32.6474 20.2862C32.6315 20.1512 32.6249 20.0152 32.6275 19.8792C32.6382 19.1919 32.8598 18.5241 33.2626 17.9653C33.6655 17.4065 34.2304 16.9832 34.8819 16.7521C35.5334 16.5209 36.2404 16.4929 36.9083 16.6719C37.5762 16.8509 38.1732 17.2282 38.6195 17.7535L32.6474 20.2862Z" fill="#4D4D4D"/>
<path d="M44.9216 11.6107V22.6849L46.8553 23.4751L45.9408 25.6589L44.0283 24.8686C43.6439 24.7014 43.3165 24.4268 43.086 24.0783C42.8302 23.6662 42.7016 23.1886 42.7162 22.7046V11.6001L44.9216 11.6107Z" fill="#4D4D4D"/>
<path d="M51.8916 16.727C52.3476 16.5761 52.8306 16.5231 53.3088 16.5713C53.7869 16.6195 54.2493 16.768 54.6655 17.0068C55.0817 17.2457 55.4422 17.5695 55.7232 17.9569C56.0042 18.3443 56.1994 18.7866 56.2958 19.2545L58.6245 18.7829C58.4607 17.9876 58.1291 17.2358 57.6515 16.5771C57.174 15.9185 56.5612 15.368 55.8538 14.962C55.1464 14.556 54.3604 14.3037 53.5477 14.2217C52.7349 14.1398 51.9139 14.23 51.1389 14.4866L51.8916 16.727Z" fill="#4D4D4D"/>
<path d="M49.1442 24.2261L50.7173 22.4572C50.3573 22.1405 50.0691 21.7514 49.8717 21.3156C49.6743 20.8799 49.5722 20.4075 49.5722 19.9297C49.5722 19.4518 49.6743 18.9794 49.8717 18.5437C50.0691 18.108 50.3573 17.7189 50.7173 17.4022L49.1428 15.6333C48.5307 16.1715 48.0407 16.8328 47.705 17.5733C47.3694 18.3139 47.1958 19.1168 47.1958 19.929C47.1958 20.7412 47.3694 21.5442 47.705 22.2847C48.0407 23.0253 48.5307 23.6866 49.1428 24.2248L49.1442 24.2261Z" fill="#4D4D4D"/>
<path d="M56.2957 20.6079C56.199 21.0757 56.0036 21.5178 55.7224 21.905C55.4411 22.2923 55.0804 22.6157 54.6641 22.8542C54.2477 23.0927 53.7852 23.2408 53.3071 23.2885C52.8289 23.3363 52.346 23.2828 51.8902 23.1315L51.1361 25.3706C51.9109 25.6274 52.7316 25.7181 53.5442 25.6366C54.3568 25.5552 55.1428 25.3035 55.8504 24.8981C56.558 24.4928 57.1711 23.943 57.6492 23.285C58.1274 22.627 58.4598 21.8757 58.6244 21.0808L56.2957 20.6079Z" fill="#4D4D4D"/>
</svg>
