<svg width="67" height="39" viewBox="0 0 67 39" fill="none" xmlns="http://www.w3.org/2000/svg">
<path d="M61.4783 0.879009H6.26254C4.82112 0.858955 3.42975 1.34964 2.39433 2.24319C1.35892 3.13674 0.764214 4.36 0.740967 5.64404L0.740967 34.2343C0.764214 35.5183 1.35892 36.7416 2.39433 37.6351C3.42975 38.5287 4.82112 39.0193 6.26254 38.9993H61.4783C62.9197 39.0193 64.3111 38.5287 65.3465 37.6351C66.3819 36.7416 66.9766 35.5183 66.9998 34.2343V5.64404C66.9766 4.36 66.3819 3.13674 65.3465 2.24319C64.3111 1.34964 62.9197 0.858955 61.4783 0.879009Z" fill="white"/>
<path d="M10.4083 15.0679H12.4367L11.4228 12.5024L10.4083 15.0679Z" fill="#4D4D4D"/>
<path d="M21.1953 23.6797V24.871H24.6067V26.154H21.1953V27.5287H24.9753L26.727 25.6041L25.0676 23.6797H21.1953Z" fill="#4D4D4D"/>
<path d="M47.8396 12.5024L46.7332 15.0679H48.8539L47.8396 12.5024Z" fill="#4D4D4D"/>
<path d="M31.0603 28.2604V23.0381L28.6631 25.6037L31.0603 28.2604Z" fill="#4D4D4D"/>
<path d="M35.578 24.5047C35.4857 23.9549 35.1166 23.6797 34.5631 23.6797H32.6274V25.3288H34.6559C35.209 25.329 35.578 25.0543 35.578 24.5047Z" fill="#4D4D4D"/>
<path d="M42.0311 25.1464C42.2155 25.0546 42.3081 24.7794 42.3081 24.5051C42.4004 24.1389 42.2155 23.9554 42.0311 23.8637C41.8472 23.772 41.5702 23.772 41.294 23.772H39.4497V25.2381H41.2939C41.5701 25.2381 41.8471 25.2381 42.0311 25.1464Z" fill="#4D4D4D"/>
<path d="M55.307 10.1206V11.22L54.7542 10.1206H50.4214V11.22L49.868 10.1206H43.9674C42.9534 10.1206 42.1232 10.304 41.386 10.6705V10.1206H37.2374V10.2123V10.6705C36.7766 10.3042 36.2234 10.1206 35.4858 10.1206H20.6423L19.6277 12.4112L18.6138 10.1206H15.295H13.9119V11.22L13.4509 10.1206H13.3586H9.3943L7.5501 14.4267L5.42985 19.0993L5.39087 19.1911H5.42985H10.1319H10.1908L10.2242 19.0993L10.7776 17.7253H11.9761L12.5293 19.1911H17.8761V19.0993V18.0917L18.3374 19.191H21.0108L21.4715 18.0917V19.0993V19.1911H23.5921H34.1946H34.2869V16.8088H34.4717C34.6559 16.8088 34.6559 16.8088 34.6559 17.0838V19.0994H41.294V18.5497C41.8472 18.825 42.6764 19.0994 43.7829 19.0994H46.5491L47.1023 17.6338H48.3926L48.9458 19.0994H54.2929V18.1834V17.7254L55.123 19.0994H55.307H55.3995H59.4561V10.1206H55.3072H55.307ZM24.0533 17.8171H23.1312H22.5781V17.2678V12.7778L22.4859 12.9879V12.9854L20.3411 17.8171H20.2732H19.7801H18.9823L16.7698 12.7778V17.8171H13.6353L12.99 16.4428H9.85505L9.2096 17.8171H7.58895L10.3163 11.4035H12.621L15.2024 17.542V11.4035H15.7554H17.645L17.6885 11.4953H17.6917L18.8549 14.0112L19.6902 15.8962L19.7198 15.8012L21.5636 11.4036H24.0532V17.8171H24.0533ZM30.415 12.7778H26.8193V13.9688H30.3227V15.2514H26.8193V16.5345H30.415V17.9084H25.2521V11.4036H30.415V12.7778ZM36.9908 15.1403C36.9932 15.1424 36.9963 15.1439 36.9992 15.1458C37.034 15.1825 37.0639 15.2192 37.0893 15.2544C37.2659 15.4845 37.4087 15.8267 37.4159 16.3284C37.4164 16.3371 37.4168 16.3457 37.4174 16.3544C37.4174 16.3594 37.4183 16.3637 37.4183 16.3689C37.4183 16.3718 37.418 16.374 37.418 16.3768C37.4201 16.4272 37.4215 16.4788 37.4215 16.5345V17.8172H36.0388V17.084C36.0388 16.7175 36.0388 16.1677 35.7618 15.8012C35.6747 15.7147 35.5866 15.6576 35.4906 15.617C35.3524 15.5281 35.0905 15.5266 34.6559 15.5266H32.9959V17.8172H31.4289V11.4036H34.9326C35.7618 11.4036 36.3153 11.4036 36.7764 11.6785C37.2282 11.948 37.501 12.3951 37.5114 13.1031C37.49 14.0781 36.8602 14.6131 36.4074 14.7935C36.4074 14.7935 36.715 14.855 36.9908 15.1403ZM40.0954 17.8171H38.5279V11.4035H40.0954V17.8171ZM58.0736 17.8171H56.0449L53.0948 12.9609V16.9922L53.0851 16.9828V17.821H51.5276V17.8172H49.9601L49.407 16.4429H46.1798L45.6267 17.9085H43.875C43.138 17.9085 42.2154 17.7255 41.6625 17.1758C41.1093 16.6261 40.833 15.8931 40.833 14.7022C40.833 13.786 41.0172 12.8692 41.6625 12.1365C42.1231 11.5864 42.9533 11.4036 43.9672 11.4036H45.4426V12.7778H43.9672C43.414 12.7778 43.138 12.8691 42.7684 13.1445C42.4924 13.4192 42.3078 13.9688 42.3078 14.6101C42.3078 15.3432 42.4001 15.8012 42.7684 16.1677C43.0457 16.4429 43.4142 16.5346 43.875 16.5346H44.5204L46.6406 11.4956H47.563H48.9457L51.5275 17.6341V17.321V15.2516V15.0686V11.4957H53.8322L56.5053 15.9849V11.4957H58.0733V17.8174H58.0736V17.8171Z" fill="#4D4D4D"/>
<path d="M35.6762 14.0738C35.7031 14.0452 35.7275 14.0128 35.7482 13.9756C35.8317 13.8443 35.9274 13.6076 35.8758 13.2847C35.8737 13.255 35.8683 13.2276 35.8619 13.2011C35.8602 13.1938 35.8605 13.1873 35.8585 13.1799L35.8576 13.1801C35.8117 13.0231 35.6946 12.9267 35.5778 12.8682C35.393 12.7769 35.1164 12.7769 34.8399 12.7769H32.9957V14.243H34.8399C35.1164 14.243 35.3931 14.243 35.5778 14.1512C35.6055 14.1372 35.6302 14.1182 35.6539 14.0967L35.6542 14.0979C35.6543 14.0978 35.6637 14.088 35.6762 14.0738Z" fill="#4D4D4D"/>
<path d="M63.5127 26.979C63.5127 26.3377 63.3286 25.6961 63.0521 25.2381V21.1154H63.0479V20.8401C63.0479 20.8401 59.1835 20.8401 58.6083 20.8401C58.0334 20.8401 57.3357 21.3897 57.3357 21.3897V20.8401H53.095C52.4493 20.8401 51.62 21.0235 51.2508 21.3897V20.8401H43.691V21.1154V21.3896C43.1383 20.9318 42.1233 20.84 41.6627 20.84H36.684V21.1152V21.3894C36.2231 20.9317 35.1163 20.8398 34.5629 20.8398H29.032L27.741 22.2143L26.5423 20.8398H26.1564H25.5283H18.2451V21.1151V21.8389V30.094H26.3583L27.6914 28.7689L28.8469 30.094H28.9394H33.6143H33.8262H33.9185H34.0102V29.1779V27.9869H34.4715C35.1163 27.9869 35.9464 27.9869 36.5918 27.7116V30.0019V30.1856H40.7406V30.0019V27.8033H40.9245C41.2015 27.8033 41.2015 27.8033 41.2015 28.0782V30.0019V30.1856H53.7396C54.57 30.1856 55.3993 30.0019 55.8601 29.6355V30.0019V30.1856H59.8249C60.6541 30.1856 61.4845 30.094 62.0377 29.7273C62.8865 29.2212 63.4215 28.3254 63.5011 27.2569C63.5048 27.2253 63.5094 27.1936 63.5123 27.1619L63.5069 27.1568C63.5103 27.0975 63.5127 27.0388 63.5127 26.979ZM34.4716 26.4294H32.6273V26.7036V27.2536V27.8035V28.8113H29.597L27.8332 26.7955L27.8271 26.8022L27.741 26.7036L25.7127 28.8113H19.8123V22.398H25.805L27.4422 24.1801L27.7864 24.5532L27.8331 24.5051L29.7695 22.3981H34.6557C35.604 22.3981 36.6659 22.6307 37.0683 23.5895C37.1167 23.7794 37.1448 23.9905 37.1448 24.2303C37.1448 26.0626 35.854 26.4294 34.4716 26.4294ZM43.691 26.3376C43.8752 26.6118 43.9675 26.9789 43.9675 27.5289V28.8112H42.4004V27.9869C42.4004 27.6198 42.4004 26.9789 42.1234 26.7036C41.9395 26.4294 41.5702 26.4294 41.0175 26.4294H39.3581V28.8113H37.7909V22.3062H41.2941C42.0311 22.3062 42.6764 22.3062 43.1383 22.5808C43.5989 22.856 43.9675 23.3141 43.9675 24.0471C43.9675 25.0547 43.3224 25.6044 42.8613 25.788C43.3224 25.9705 43.5989 26.1543 43.691 26.3376ZM50.0527 23.68H46.4566V24.8712H49.9602V26.1542H46.4566V27.437H50.0527V28.8112H44.8898V22.3061H50.0527V23.68ZM53.9246 28.8113H50.9742V27.4371H53.9246C54.2006 27.4371 54.3855 27.4371 54.5703 27.2537C54.6626 27.1619 54.7542 26.979 54.7542 26.7956C54.7542 26.6119 54.6626 26.4295 54.5703 26.3377C54.4778 26.2461 54.2931 26.1544 54.0166 26.1544C52.5414 26.0627 50.7898 26.1544 50.7898 24.139C50.7898 23.2227 51.3429 22.2147 53.0026 22.2147H56.0448V23.772H53.187C52.9105 23.772 52.7258 23.772 52.5413 23.8637C52.3574 23.9555 52.3574 24.139 52.3574 24.322C52.3574 24.597 52.5413 24.6887 52.7257 24.7796C52.9105 24.8714 53.0947 24.8714 53.2789 24.8714H54.1088C54.9386 24.8714 55.4917 25.0547 55.8604 25.4213C56.1371 25.6963 56.3216 26.1544 56.3216 26.7956C56.3216 28.1695 55.4918 28.8113 53.9246 28.8113ZM61.8534 28.1695C61.485 28.5365 60.8393 28.8113 59.917 28.8113H56.9674V27.4371H59.9169C60.1936 27.4371 60.3784 27.4371 60.5626 27.2537C60.6545 27.1619 60.747 26.979 60.747 26.7956C60.747 26.6119 60.6545 26.4295 60.5626 26.3377C60.4703 26.2461 60.2861 26.1544 60.0094 26.1544C58.5348 26.0627 56.7826 26.1544 56.7826 24.1391C56.7826 23.2683 57.2839 22.4816 58.5203 22.248C58.6681 22.2277 58.8243 22.2147 58.9954 22.2147H62.0381V23.772H60.0094H59.2721H59.1798C58.9031 23.772 58.7189 23.772 58.5348 23.8637C58.4419 23.9555 58.3497 24.139 58.3497 24.322C58.3497 24.597 58.4419 24.6887 58.7189 24.7796C58.9031 24.8714 59.0875 24.8714 59.2721 24.8714H59.3637H60.1016C60.5045 24.8714 60.8092 24.9208 61.088 25.0182C61.3434 25.1101 62.1888 25.4858 62.3779 26.4668C62.3943 26.5696 62.4064 26.6769 62.4064 26.7956C62.4064 27.3454 62.222 27.8035 61.8534 28.1695Z" fill="#4D4D4D"/>
</svg>
