<svg width="67" height="39" viewBox="0 0 67 39" fill="none" xmlns="http://www.w3.org/2000/svg">
<path d="M61.1079 0.000591406H5.89212C4.45069 -0.0194631 3.05933 0.471223 2.02391 1.36477C0.988496 2.25832 0.393791 3.48158 0.370544 4.76563L0.370544 33.3558C0.393791 34.6399 0.988496 35.8631 2.02391 36.7567C3.05933 37.6502 4.45069 38.1409 5.89212 38.1209H61.1079C62.5493 38.1409 63.9406 37.6502 64.9761 36.7567C66.0115 35.8631 66.6062 34.6399 66.6294 33.3558V4.76563C66.6062 3.48158 66.0115 2.25832 64.9761 1.36477C63.9406 0.471223 62.5493 -0.0194631 61.1079 0.000591406Z" fill="white"/>
<path d="M26.0995 26.3353L28.5789 11.7861H32.5929L30.1137 26.3353H26.0995Z" fill="#4D4D4D"/>
<path d="M44.4035 12.1624C43.608 11.8675 42.3617 11.5518 40.8053 11.5518C36.8382 11.5518 34.0438 13.5255 34.0198 16.3533C33.9978 18.4434 36.0145 19.6093 37.5381 20.3058C39.1006 21.0175 39.626 21.4742 39.6184 22.1103C39.6087 23.0855 38.37 23.5313 37.2159 23.5313C35.6094 23.5308 34.7555 23.3106 33.437 22.7677L32.9198 22.5359L32.356 25.7929C33.2939 26.1992 35.0282 26.5515 36.8285 26.5693C41.0478 26.5684 43.788 24.619 43.8187 21.5984C43.8341 19.9435 42.7643 18.6841 40.4482 17.6454C39.0448 16.9732 38.1853 16.5243 38.1946 15.842C38.1946 15.2375 38.9225 14.5908 40.4937 14.5908C41.8065 14.5705 42.7576 14.8532 43.4989 15.1481L43.8581 15.3159L44.4035 12.1624Z" fill="#4D4D4D"/>
<path d="M51.2474 11.7861C50.2856 11.7861 49.5907 12.078 49.1681 13.0252L43.2191 26.3358H47.4691L48.2953 24.1063H53.3731L53.8449 26.3358H57.6231L54.3177 11.7865H51.2475L51.2474 11.7861ZM49.423 21.1951C49.7545 20.3573 51.0218 17.1286 51.0218 17.1286C50.9988 17.1668 51.3517 16.2867 51.5543 15.7406L51.826 16.9944C51.826 16.9944 52.5939 20.4675 52.7551 21.1955H49.423V21.1951Z" fill="#4D4D4D"/>
<path d="M18.7793 21.7594L18.4257 19.7648C17.6931 17.4398 15.4194 14.9241 12.8715 13.6637L16.4181 26.3353H20.669L27.0443 11.7861H22.7942L18.7793 21.7594Z" fill="#4D4D4D"/>
<path d="M8.50763 11.7861V12.0211C13.5445 13.225 17.0414 16.2685 18.4258 19.765L16.9703 13.0278C16.7274 12.1071 15.9911 11.8182 15.1198 11.7863L8.50763 11.7861Z" fill="#4D4D4D"/>
</svg>
