<svg width="23" height="22" viewBox="0 0 23 22" fill="none" xmlns="http://www.w3.org/2000/svg">
<g clip-path="url(#clip0_4922_878)">
<path d="M11.4877 5.35156C8.36548 5.35156 5.83778 7.87973 5.83778 10.9964C5.83778 14.1158 8.36824 16.6412 11.4877 16.6412C14.61 16.6412 17.1377 14.1131 17.1377 10.9964C17.1377 7.87698 14.6072 5.35156 11.4877 5.35156ZM11.4877 14.6603C9.46098 14.6603 7.82049 13.0204 7.82049 10.9964C7.82049 8.9724 9.46189 7.33248 11.4877 7.33248C13.5136 7.33248 15.155 8.9724 15.155 10.9964C15.1559 13.0204 13.5145 14.6603 11.4877 14.6603Z" fill="white"/>
<path d="M16.0224 0.0708134C13.9966 -0.0236032 8.97877 -0.0190199 6.95111 0.0708134C5.16933 0.15423 3.59766 0.584147 2.3306 1.85006C0.213015 3.96573 0.483676 6.81656 0.483676 10.9975C0.483676 15.2765 0.245127 18.0613 2.3306 20.1449C4.45643 22.2679 7.35113 21.9901 11.4863 21.9901C15.7288 21.9901 17.1931 21.9929 18.6932 21.4126C20.7328 20.6216 22.2724 18.8001 22.4228 15.5286C22.5183 13.5036 22.5128 8.49131 22.4228 6.46548C22.2412 2.60356 20.1667 0.26148 16.0224 0.0708134ZM19.229 18.7451C17.8409 20.1321 15.915 20.0083 11.4597 20.0083C6.8722 20.0083 5.03262 20.0761 3.69032 18.7314C2.14434 17.1941 2.42418 14.7256 2.42418 10.9828C2.42418 5.91823 1.90396 2.27081 6.99148 2.01048C8.16037 1.96923 8.50443 1.95548 11.4468 1.95548L11.4881 1.98298C16.3775 1.98298 20.2135 1.47148 20.4438 6.55348C20.4961 7.71306 20.508 8.0614 20.508 10.9966C20.5071 15.5267 20.5934 17.3756 19.229 18.7451Z" fill="white"/>
<path d="M17.3608 6.44774C18.0901 6.44774 18.6813 5.85716 18.6813 5.12865C18.6813 4.40014 18.0901 3.80957 17.3608 3.80957C16.6315 3.80957 16.0403 4.40014 16.0403 5.12865C16.0403 5.85716 16.6315 6.44774 17.3608 6.44774Z" fill="white"/>
</g>
<defs>
<clipPath id="clip0_4922_878">
<rect width="22.0199" height="22" fill="white" transform="translate(0.473114)"/>
</clipPath>
</defs>
</svg>
