<svg width="17" height="17" viewBox="0 0 17 17" fill="none" xmlns="http://www.w3.org/2000/svg">
<path d="M15.5832 11.9849V14.1099C15.584 14.3072 15.5436 14.5024 15.4646 14.6832C15.3855 14.8639 15.2696 15.0262 15.1243 15.1596C14.9789 15.2929 14.8073 15.3945 14.6204 15.4577C14.4335 15.5209 14.2355 15.5443 14.039 15.5266C11.8594 15.2897 9.76566 14.5449 7.92612 13.352C6.21467 12.2645 4.76365 10.8134 3.67612 9.10199C2.47902 7.25409 1.73404 5.15019 1.50154 2.96074C1.48384 2.76486 1.50712 2.56744 1.56989 2.38106C1.63267 2.19467 1.73357 2.02339 1.86616 1.87814C1.99876 1.73288 2.16015 1.61683 2.34006 1.53736C2.51996 1.45789 2.71445 1.41676 2.91112 1.41657H5.03612C5.37988 1.41319 5.71314 1.53492 5.97379 1.75907C6.23443 1.98323 6.40468 2.29451 6.45279 2.63491C6.54248 3.31495 6.70881 3.98267 6.94862 4.62532C7.04392 4.87885 7.06455 5.15439 7.00806 5.41928C6.95156 5.68417 6.82032 5.92732 6.62987 6.11991L5.73029 7.01949C6.73864 8.79283 8.20694 10.2611 9.98029 11.2695L10.8799 10.3699C11.0725 10.1795 11.3156 10.0482 11.5805 9.99172C11.8454 9.93523 12.1209 9.95585 12.3745 10.0512C13.0171 10.291 13.6848 10.4573 14.3649 10.547C14.709 10.5955 15.0232 10.7688 15.2478 11.034C15.4725 11.2991 15.5918 11.6375 15.5832 11.9849Z" stroke="white" stroke-width="2" stroke-linecap="round" stroke-linejoin="round"/>
</svg>
