<svg width="67" height="39" viewBox="0 0 67 39" fill="none" xmlns="http://www.w3.org/2000/svg">
<path d="M60.7373 0.879009H5.52157C4.08015 0.858955 2.68878 1.34964 1.65337 2.24319C0.617952 3.13674 0.023247 4.36 0 5.64404L0 34.2343C0.023247 35.5183 0.617952 36.7416 1.65337 37.6351C2.68878 38.5287 4.08015 39.0193 5.52157 38.9993H60.7373C62.1787 39.0193 63.5701 38.5287 64.6055 37.6351C65.6409 36.7416 66.2356 35.5183 66.2589 34.2343V5.64404C66.2356 4.36 65.6409 3.13674 64.6055 2.24319C63.5701 1.34964 62.1787 0.858955 60.7373 0.879009Z" fill="white"/>
<path d="M21.8568 12.2485C21.2402 12.2485 20.7402 12.7453 20.7402 13.3581V26.6726C20.7402 27.2854 21.2401 27.7822 21.8568 27.7822C22.4734 27.7822 22.9733 27.2854 22.9733 26.6726V13.3581C22.9733 12.7454 22.4734 12.2485 21.8568 12.2485Z" fill="#4D4D4D"/>
<path d="M30.7888 12.2485C30.1722 12.2485 29.6722 12.7453 29.6722 13.3581V22.2344C29.6722 22.8472 30.1721 23.344 30.7888 23.344C31.4053 23.344 31.9053 22.8472 31.9053 22.2344V13.3581C31.9053 12.7454 31.4054 12.2485 30.7888 12.2485Z" fill="#4D4D4D"/>
<path d="M40.465 12.2485C39.8485 12.2485 39.3485 12.7453 39.3485 13.3581V22.2344C39.3485 22.8472 39.8484 23.344 40.465 23.344C41.0817 23.344 41.5816 22.8472 41.5816 22.2344V13.3581C41.5816 12.7454 41.0817 12.2485 40.465 12.2485Z" fill="#4D4D4D"/>
<path d="M44.931 12.2485C44.3144 12.2485 43.8145 12.7453 43.8145 13.3581V26.6726C43.8145 27.2854 44.3143 27.7822 44.931 27.7822C45.5476 27.7822 46.0475 27.2854 46.0475 26.6726V13.3581C46.0474 12.7454 45.5475 12.2485 44.931 12.2485Z" fill="#4D4D4D"/>
<path d="M30.7888 27.7821C31.4054 27.7821 31.9053 27.2854 31.9053 26.6726C31.9053 26.0598 31.4054 25.563 30.7888 25.563C30.1721 25.563 29.6722 26.0598 29.6722 26.6726C29.6722 27.2854 30.1721 27.7821 30.7888 27.7821Z" fill="#4D4D4D"/>
<path d="M35.2547 12.2485C34.6381 12.2485 34.1382 12.7453 34.1382 13.3581V22.2344C34.1382 22.8472 34.6381 23.344 35.2547 23.344C35.8713 23.344 36.3712 22.8472 36.3712 22.2344V13.3581C36.3712 12.7454 35.8713 12.2485 35.2547 12.2485Z" fill="#4D4D4D"/>
<path d="M35.2547 27.7821C35.8713 27.7821 36.3712 27.2854 36.3712 26.6726C36.3712 26.0598 35.8713 25.563 35.2547 25.563C34.6381 25.563 34.1382 26.0598 34.1382 26.6726C34.1382 27.2854 34.6381 27.7821 35.2547 27.7821Z" fill="#4D4D4D"/>
<path d="M26.3227 12.2485C25.7061 12.2485 25.2062 12.7453 25.2062 13.3581V22.2344C25.2062 22.8472 25.7061 23.344 26.3227 23.344C26.9393 23.344 27.4392 22.8472 27.4392 22.2344V13.3581C27.4392 12.7454 26.9393 12.2485 26.3227 12.2485Z" fill="#4D4D4D"/>
<path d="M26.3227 27.7821C26.9393 27.7821 27.4392 27.2854 27.4392 26.6726C27.4392 26.0598 26.9393 25.563 26.3227 25.563C25.7061 25.563 25.2062 26.0598 25.2062 26.6726C25.2062 27.2854 25.7061 27.7821 26.3227 27.7821Z" fill="#4D4D4D"/>
<path d="M40.465 27.7821C41.0817 27.7821 41.5816 27.2854 41.5816 26.6726C41.5816 26.0598 41.0817 25.563 40.465 25.563C39.8484 25.563 39.3485 26.0598 39.3485 26.6726C39.3485 27.2854 39.8484 27.7821 40.465 27.7821Z" fill="#4D4D4D"/>
<path d="M47.1639 7.81006H19.6237C17.7768 7.81006 16.2742 9.30328 16.2742 11.1387V28.8914C16.2742 30.7268 17.7768 32.22 19.6237 32.22H47.1639C49.0109 32.22 50.5134 30.7268 50.5134 28.8914V11.1387C50.5134 9.30328 49.0109 7.81006 47.1639 7.81006ZM48.2805 28.8914C48.2805 29.5032 47.7796 30.0009 47.1639 30.0009H19.6237C19.008 30.0009 18.5071 29.5032 18.5071 28.8914V11.1387C18.5071 10.5269 19.008 10.0291 19.6237 10.0291H47.1639C47.7796 10.0291 48.2805 10.5269 48.2805 11.1387V28.8914Z" fill="#4D4D4D"/>
</svg>
