<svg width="23" height="22" viewBox="0 0 23 22" fill="none" xmlns="http://www.w3.org/2000/svg">
<g clip-path="url(#clip0_4922_876)">
<path d="M22.5128 5.43485L22.5403 5.61451C22.2743 4.67126 21.5559 3.94343 20.643 3.67851L20.6237 3.67393C18.9071 3.20826 11.9992 3.20826 11.9992 3.20826C11.9992 3.20826 5.10883 3.1991 3.37477 3.67393C2.44443 3.94343 1.72511 4.67126 1.46362 5.59526L1.45903 5.61451C0.817705 8.96126 0.813117 12.9827 1.48748 16.5659L1.45903 16.3844C1.72511 17.3277 2.44351 18.0555 3.35642 18.3204L3.37568 18.325C5.09048 18.7916 12.0001 18.7916 12.0001 18.7916C12.0001 18.7916 18.8896 18.7916 20.6246 18.325C21.5559 18.0555 22.2752 17.3277 22.5367 16.4037L22.5413 16.3844C22.833 14.8279 23 13.0368 23 11.2071C23 11.1402 23 11.0723 22.9991 11.0045C23 10.9422 23 10.8679 23 10.7937C23 8.9631 22.833 7.17193 22.5128 5.43485ZM9.7954 14.3467V7.66143L15.5444 11.0091L9.7954 14.3467Z" fill="white"/>
</g>
<defs>
<clipPath id="clip0_4922_876">
<rect width="22.0199" height="22" fill="white" transform="translate(0.980103)"/>
</clipPath>
</defs>
</svg>
